<?xml version="1.0" encoding="UTF-8"?>
<svg xmlns="http://www.w3.org/2000/svg" viewBox="0 0 144 70.14">
  <defs>
    <style>.cls-1{fill:none;}.cls-2{fill:#e86d1f;}.cls-3{fill:#fff;}</style>
  </defs>
  <title>Asset 1</title>
  <g id="Layer_2">
    <g id="Layer_3">
      <path class="cls-1" d="M113.65,43.52c0,.28,0,.82.38.89.12-.26.47-.44.51-.71C114.25,43.6,114,43.31,113.65,43.52Z"></path>
      <path class="cls-1" d="M110.82,34.55a.82.82,0,0,0,.28.41l.07,0a.63.63,0,0,0-.2-.58A1.13,1.13,0,0,0,110.82,34.55Z"></path>
      <path class="cls-1" d="M111.46,45.74a.54.54,0,0,1,.12.44c.24-.08,0-.31,0-.51C111.48,45.65,111.51,45.74,111.46,45.74Z"></path>
      <path class="cls-1" d="M120.38,37.54l.12.1A.17.17,0,0,0,120.38,37.54Z"></path>
      <path class="cls-1" d="M120.49,36.48a.12.12,0,0,1,0,.17.47.47,0,0,0,.08.18.36.36,0,0,0,.12-.34S120.58,36.43,120.49,36.48Z"></path>
      <path class="cls-1" d="M122.08,41c-.19.14.3,0,.09.18.14.15.1-.17.28-.17C122.36,40.89,122.19,41.08,122.08,41Z"></path>
      <path class="cls-1" d="M121.16,20.87c.11.17-.07.26-.19.37a.77.77,0,0,0,.25-.08l.16-.15a.43.43,0,0,0,.05-.13h0C121.38,20.77,121.27,20.84,121.16,20.87Z"></path>
      <path class="cls-1" d="M104.44,37.76a.24.24,0,0,0,.34,0C104.79,37.37,104.32,37.45,104.44,37.76Z"></path>
      <path class="cls-1" d="M110,11.47c-.11,0-.08.11,0,.19-.12,0-.18,0-.22.14C109.83,11.89,110.16,11.63,110,11.47Z"></path>
      <path class="cls-1" d="M111.69,5.29c0,.11.11.07.15.15s.05-.12,0-.06a1.39,1.39,0,0,1,.13-.32c0-.06-.05,0-.09,0l-.11.07c0,.06.05,0,.09,0S111.75,5.24,111.69,5.29Z"></path>
      <path class="cls-1" d="M126.74,25.5a.49.49,0,0,0,.1.34c.27-.11.13-.34.27-.48C127,25.28,126.95,25.53,126.74,25.5Z"></path>
      <path class="cls-1" d="M84.36,29c-.05,0-.06,0-.12,0s0,.09,0,.17h0C84.31,29.14,84.39,29.12,84.36,29Z"></path>
      <path class="cls-1" d="M100.93,50.05c-.1,0-.14,0-.21,0-.06.17,0,.45.19.41A1.71,1.71,0,0,0,100.93,50.05Z"></path>
      <path class="cls-1" d="M100.9,50.83c.1,0,.14-.14.09-.2S100.85,50.76,100.9,50.83Z"></path>
      <path class="cls-1" d="M127.07,20.32a2.56,2.56,0,0,1-.27.33C126.92,20.75,127.19,20.47,127.07,20.32Z"></path>
      <path class="cls-1" d="M126.71,20.78c-.18-.11-.22.27-.24.39C126.68,21.28,126.59,20.87,126.71,20.78Z"></path>
      <path class="cls-1" d="M104.29,39.41c0,.11.09.13.18.13s0-.09,0-.17S104.38,39.42,104.29,39.41Z"></path>
      <path class="cls-1" d="M129,35a1.12,1.12,0,0,0-.06.6c.17,0,.34-.18.44-.27C129.3,35.2,129.13,35.24,129,35Z"></path>
      <path class="cls-2" d="M90,35.46c0,.07,0,.09,0,.14s.17,0,.21-.07A.22.22,0,0,0,90,35.46Z"></path>
      <path class="cls-2" d="M89.61,38.83c.09-.51-.77-.77-1-.34a1.13,1.13,0,0,1,0,.44C88.87,38.91,89.52,39.33,89.61,38.83Z"></path>
      <path class="cls-2" d="M88.72,35.63h.12C88.87,35.5,88.7,35.5,88.72,35.63Z"></path>
      <path class="cls-2" d="M89.91,38.66a.44.44,0,0,0,.31.34.39.39,0,0,0,.52-.41A.42.42,0,1,0,89.91,38.66Z"></path>
      <path class="cls-2" d="M83.47,33.31c0,.35.68.29.7-.13C84,32.83,83.42,32.92,83.47,33.31Z"></path>
      <polygon class="cls-2" points="84.27 29.2 84.27 29.2 84.27 29.19 84.27 29.2"></polygon>
      <path class="cls-2" d="M86,34.28c0-.11-.09-.13-.18-.14a.23.23,0,0,0,0,.17A.14.14,0,0,0,86,34.28Z"></path>
      <path class="cls-2" d="M87.41,32.9c.24.64,1.47.64,1.53-.14A.23.23,0,0,1,89,32.7s-.13-.07,0-.1a1.16,1.16,0,0,0-.64-.5c-.07,0-.19.13-.21,0C87.78,32.24,87.42,32.38,87.41,32.9Z"></path>
      <path class="cls-2" d="M88.79,30.61v.13h.15C89,30.62,88.89,30.6,88.79,30.61Z"></path>
      <path class="cls-2" d="M88.79,23.47h.09a.56.56,0,0,0,.09-.34c-.07,0-.1-.09-.21-.07S88.73,23.39,88.79,23.47Z"></path>
      <path class="cls-2" d="M88.42,30.28c0-.2-.42-.34-.46-.07S88.35,30.43,88.42,30.28Z"></path>
      <path class="cls-2" d="M87.32,45.94v.13a.18.18,0,0,0,.15,0C87.49,45.94,87.41,45.94,87.32,45.94Z"></path>
      <path class="cls-2" d="M89.88,37.28c-.2.31.33.43.34.13A.33.33,0,0,0,89.88,37.28Z"></path>
      <path class="cls-2" d="M116.52,61c.69-.33,1.32.47,2-.19a1.82,1.82,0,0,0,.15-2c-.42-.6-1.45-.47-2.13.1C116.62,59.64,115.54,60.53,116.52,61Z"></path>
      <path class="cls-2" d="M120.55,49.76c.14.28.42.22.57,0C121,49.29,120.58,49.46,120.55,49.76Z"></path>
      <path class="cls-2" d="M126.29,46.41c-.35-.26-.89.18-1.23-.13-.66.4-1.1.72-1.29,1.35a2,2,0,0,1,.23.9c.6.72,2,1,2.48,0,.16-.14.25,0,.42-.18s.17-.53.43-.74a10.53,10.53,0,0,0-1.2-.8C126,46.63,126.37,46.59,126.29,46.41Z"></path>
      <path class="cls-2" d="M119.93,43.76c.06.14.09.33.24.32C120.06,44,120.09,43.72,119.93,43.76Z"></path>
      <path class="cls-2" d="M120.42,44.13c-.24.08-.12.27-.24.39C120.34,44.72,120.53,44.32,120.42,44.13Z"></path>
      <path class="cls-2" d="M120.19,53.11c.56-.06,1,.27,1.6.15A2.56,2.56,0,0,0,123,52.1c-.17-.33,0-.56,0-.82A2,2,0,0,0,121.93,50C120.37,50.15,119.24,51.49,120.19,53.11Z"></path>
      <path class="cls-2" d="M118.4,52.59a.28.28,0,1,0,.54.07A.34.34,0,0,0,118.4,52.59Z"></path>
      <path class="cls-2" d="M118.94,48.57a2.73,2.73,0,0,0-.44,1.15c.24-.45.52-.33.74-.69C119.16,48.78,119,48.82,118.94,48.57Z"></path>
      <path class="cls-2" d="M118.75,49.81c-.53.4-.5,1-.63,1.51A1.53,1.53,0,0,0,118.75,49.81Z"></path>
      <path class="cls-2" d="M119.38,51.35c.1.1.29.15.34,0S119.41,51.2,119.38,51.35Z"></path>
      <path class="cls-2" d="M122.83,45.31c.36.61,1.22-.07,1.17-.71C123.5,44,122.49,44.72,122.83,45.31Z"></path>
      <path class="cls-2" d="M119.9,47.58c-.77-1.46-1,1.31,0,0Z"></path>
      <path class="cls-2" d="M122.32,48.51c-.1,0-.23,0-.37.14.05.23.18.14.27.24C122.27,48.77,122.45,48.69,122.32,48.51Z"></path>
      <path class="cls-2" d="M113.77,68.35c-.23.62.79.75.63.1C114.26,68.14,114,68.19,113.77,68.35Z"></path>
      <path class="cls-2" d="M109.39,69.49c-.23.49.6.75.52.16C109.8,69.37,109.6,69.42,109.39,69.49Z"></path>
      <path class="cls-2" d="M108.64,54.45c-.8.12-.91,1.32-1.73,1.78a.43.43,0,0,0,.07.28A6.5,6.5,0,0,0,108.64,54.45Z"></path>
      <path class="cls-2" d="M112.22,61c-.33-.56-.39-1-.91-1.37-.37.06-.71,0-1.13.21a.7.7,0,0,1-.25-.65c-.4,0-.49-.54-.8-.72-.49-.29-1.05.15-1.6,0a6.13,6.13,0,0,0-1.3,1.76c.58.75.26,2.37,1.32,2.65a2.62,2.62,0,0,1,.25.65,4,4,0,0,0,.56-.18c.22.22-.12.43,0,.72a.9.9,0,0,0,1.24.45c.16-.59-.5-1.44.42-1.78.26,0,.33.75.79.4-.17-.3-.43-.27-.59-.6,0-.09.05-.16,0-.25.54-.2.77-.08,1.29-.47C111.67,61.43,111.75,61.06,112.22,61Z"></path>
      <path class="cls-2" d="M118.23,43.83c.14-.08,0-.34.07-.49C118.15,43.42,118.24,43.66,118.23,43.83Z"></path>
      <path class="cls-2" d="M107.27,64.46l-.22.14c-.05.18.1.24.18.37l.28-.17C107.45,64.63,107.37,64.49,107.27,64.46Z"></path>
      <path class="cls-2" d="M103.06,70.06c.2.28.88-.24.75-.54C103.56,69.68,103,69.62,103.06,70.06Z"></path>
      <path class="cls-2" d="M117,42.82c-.11,0-.17.15-.08.21S117.06,42.94,117,42.82Z"></path>
      <path class="cls-2" d="M117.37,42.45l-.12,0c0,.15,0,.5.1.64C117.47,43,117.37,42.68,117.37,42.45Z"></path>
      <path class="cls-2" d="M118,46.16c0-.25-.42,0-.19.2C117.91,46.3,118.05,46.26,118,46.16Z"></path>
      <path class="cls-2" d="M118.65,63.85c.35-.58,0-1.38-.45-2.21-.38.2-.51-.09-.86-.28-.8.36-2.12.23-2.4,1.3.42,1,.35,1.85,1,2.75.25.17.54.2.76.5,1.16-.35,1.5-1.1,2.1-1.76C118.74,63.94,118.6,64,118.65,63.85Z"></path>
      <path class="cls-2" d="M117.08,57.66a1.14,1.14,0,0,0,1.18-1.12C117.63,55.4,115.81,56.68,117.08,57.66Z"></path>
      <path class="cls-2" d="M113.44,62.6c-1.21-.11-1.71.85-1.84,1.85.44,2,3,1,2.91-.57C114.18,63.35,113.69,63.43,113.44,62.6Z"></path>
      <path class="cls-2" d="M121.9,44.76c-.48.29-1,1.24-.7,1.79A2.76,2.76,0,0,0,121.9,44.76Z"></path>
      <path class="cls-2" d="M126.5,23.4c.24-.08.06-.4-.07-.44A.27.27,0,0,0,126.5,23.4Z"></path>
      <path class="cls-2" d="M136.19,42.06c0,.18.32.45.45.61C136.67,42.5,136.33,42.19,136.19,42.06Z"></path>
      <path class="cls-2" d="M143.25,37.84a2.68,2.68,0,0,0-1.83-1.77c.2-.55,1.27-.17,1.42-.95a1.77,1.77,0,0,1-1.35-.38c-.28-.45-.08-.75-.13-1.13-.56-.65-.51-1.22-1.13-2.12,0-.27.23-.44.49-.62,0-.14-.12-.14-.18-.21.26-.31.67-.58.68-1-.07-.2-.24,0-.37,0,.21-.32.2-1.12-.22-1.31-.08-.3.22-.48.12-.79-.36-.61-1.29,0-.92.64-1.16.26-.63,2.21.41,1.84,0,.21-.22.34-.41.49.32,0,.65-.6,1-.55,0,.47-.66.72-1,1.08-1-.37-2.52,0-3.49-1a4.36,4.36,0,0,0,.48-.93c.24-.14.65-.2.78-.48-.18-.46-.7,0-.82.26-.2.06-.32-.22-.49-.26,0-.34-.09-.72-.1-1.06.22-.09.38.1.65-.16.22.06.38.32.64.26,0-.33.55-1.22-.13-1.13a.35.35,0,0,1-.29.58,6,6,0,0,1,.33-1.81c-.4.25-.23,1.13-.51,1.6-.5,0-.34-.7-.18-.94-.5-.88.08-2.26-.89-2.51.11.42,0,1.07.42,1.27-.17.51.25,1.17-.18,1.39a2.83,2.83,0,0,1-.76-1.95,1,1,0,0,0,.15-1.3c-1,1.06.37,2.88-.31,4-.67-.53-1.38.77-.5,1.19a1.44,1.44,0,0,0,.78-.48c-.17-.36-.05-.86.37-.87a4,4,0,0,1,.26,1.69c-.27.19-.69.33-.72.6-.31,0-.56-.12-.88,0-.18-.33,0-.47,0-.82-.26-.72-1.07.1-.58.44,0,.13-.24.2-.27.33.29.57-.06.95-.09,1.42-.41-.57,0-1.31.07-1.89a5.8,5.8,0,0,0-.65,1.76c-.08,0-.14-.05-.23,0a.44.44,0,0,1,0-.47c-1-.39-2.56.78-2,2-.15.08-.19-.23-.37,0a1.38,1.38,0,0,0,1.08.86c.11-.19-.21-.23-.24-.49.37-.15.76.24.71.69a2,2,0,0,0-.75,2.71c.05.11-.31.06-.3.26.1.53,1,.84,1.17,1.46,0,.15.1.62,0,.72s-.32-.13-.57-.13a5.28,5.28,0,0,0-1.8.62l-.12-.25c-.07-.36.51-.24.55-.5a.27.27,0,0,0-.32-.21c.15-.43.29-1.23-.28-1.44.06-.19.39-.29.41-.49s-.3.08-.43,0c0-.28.06-.54-.25-.65a.9.9,0,0,0,.06-.34c.06-.06.13-.11.14-.23a.38.38,0,0,1-.15,0c0-.29-.13-.6-.19-.92a2.52,2.52,0,0,0-.12-1.42c.39-.39,1.1-.59,1.47-1,.17-1.31.53-2.32-.26-3.86a2.25,2.25,0,0,0-.45.11,1.27,1.27,0,0,1-.31-.62c-.71-.28-2.29.37-2.26-1,.17-.17.34,0,.39-.24s-.24-.12-.38-.17c0-.24.32-.38.09-.7a3,3,0,0,1,1.14-.78,1.18,1.18,0,0,0-.71-1.57c-.68-.07-.5.75-.81,1.29-.15.27-.41.31-.4.65-.36.13-.61-.53-.52-.89.19,0,0,.2.15.31a3.64,3.64,0,0,1,.18-2.12c.62-.52,1.19-.85,1.66-1.33l-.19-.37a3.49,3.49,0,0,0-.85,0c-.31.7-1,1.55-1.2,2.1-.53-.25-.29-.93,0-1.26-.13-.23-.35-.11-.49-.26.3-.75-.61-1.2-.56-2-.39-.05-.88.26-1.25.12-.28-.76.59-1.16.44-1.88a1,1,0,0,0,.82-1.7c-.36-.06-1.11.14-1.2.65A1.55,1.55,0,0,0,121,16.69c.22.21.13.62.18.94-.22,0-.41-.12-.61-.19-.23.1,0,.49-.3.42-.22.12-.31-.26-.49-.26s-.08.39-.32.52-.48-.2-.72-.28c-.35.11,0,.42-.38.39a15.43,15.43,0,0,1-.94-3,.53.53,0,0,0-.51.15,2.9,2.9,0,0,1-.07,1.17c-.74.25-1.33-.06-2,.12-.3-.42,0-.64-.24-1.06-.07,0-.17.06-.23,0-.28.58.07,1.37-.18,2l-.33.2c-.42,1.19-1.25,2.26-.4,3.86.09.15,0,.25,0,.35.31.45.88,1.15.86,1.72l.14.11a.45.45,0,0,1-.19-.08,4.49,4.49,0,0,1-.58-.81l-.25-.33a.85.85,0,0,1,.21.07c0-.16-.23-.44-.46-.36l-.14-.15c-.23-.23-.49-.52-.73-.81l-.11-.09a.93.93,0,0,0,.25-.11.77.77,0,0,0-1.11-.56,8.56,8.56,0,0,0-.8-.59c-.17-.11-.38-.16-.56-.27a.28.28,0,0,0,0-.1.19.19,0,0,0-.1,0l-.09-.1c-.37-.13-.69-.31-1-.46,0-.1-.06-.21-.08-.33-.43-.2-.87-.3-1.09-.86-.34.18-.58,0-.83-.21-.46.11-1,.29-1.31,0-.61.54-1.42.52-2,1.13-.18.19-.24.51-.4.72l-.68.26a4.56,4.56,0,0,0-1.71,1.08.41.41,0,0,1-.24,0c-.1.28-.42.25-.61.41s-.13.23-.22.34l-.14.11a1.15,1.15,0,0,0-.29.16c-.09.09-.12.25-.21.34a1.16,1.16,0,0,1-.33.2,4.25,4.25,0,0,1-.79-.73,1.73,1.73,0,0,0-1.6,1.06l-.18,0a.51.51,0,0,1-.4.2,6,6,0,0,0-1.65,1c.06.51-.13.8-.7.71-.12.08-.16.25-.3.3.09.51.07.87-.3,1,0,.58-.37.31-.64.37s-.43.63-.88.61a1.7,1.7,0,0,1-.91-.47c-.29-.42-.5-1.07-.86-1.52a1,1,0,0,1-.73-.54,1.51,1.51,0,0,1-.52.13,3,3,0,0,0-.21.24c-.24,0-.68,0-1.1,0a5,5,0,0,1-.52-.17c-.18,0-.36,0-.55,0-.39-.07-.74-.35-1.12-.46a.93.93,0,0,0-.08-1.14c-.59-.9-1.94,0-1.56,1a1.29,1.29,0,0,0,.15.29l-.16.13a1,1,0,0,0-1.1.61,1.25,1.25,0,0,0-.49,1.11c0,.1-.06.13-.09.2-.08.55.29.74.49,1s.26.64.46.81.23.08.31.13c.3.44.86.39,1.25.74.1,0,0-.11.15-.1s-.06.08,0,.17.28.18.42.27c0-.08,0-.06,0-.17s.07,0,.12,0,0,.15-.09.2a2,2,0,0,0,.49.24,4.57,4.57,0,0,0,.76.13,6.24,6.24,0,0,0,2.93-.2c.43-.71.87-1.41,1.83-1.45.31,0,.55.19.85.27.13,0,.26,0,.37,0s.3.35.58.54.3.12.43.2a4,4,0,0,0,.37.27,3.75,3.75,0,0,1,.7.37,2.45,2.45,0,0,1,.54.78,1.32,1.32,0,0,0-.62,2c-.12,0-.23,0-.26.07-.09-.1-.21-.17-.3-.27-.72-.06-1.06.58-1.89.5a.45.45,0,0,1-.15.17c0,.11.09.13.06.27a2.67,2.67,0,0,0-.76.94,4.8,4.8,0,0,0,.15.91c.25.19.54.33.67.64s0,.31,0,.5.35.25.58.4.26.27.4.34.62,0,.67.37c.08.55-.79,1-.43,1.65-.17.45-.27,1-.88.94-.14.73-1,.86-1.71.84-.08.08-.13.15-.18.1s0-.15.09-.13a1.52,1.52,0,0,0-1.16,0,1.93,1.93,0,0,1-1.13.44c.1.65-1,.26-1,.81a.52.52,0,0,1-.37.81c-.18.83.36,1.13.52,1.68a3.81,3.81,0,0,0,1,.51,1.59,1.59,0,0,0,.67.2c.31,0,.66.16.95.2a3.27,3.27,0,0,0,1.16-.17.38.38,0,0,0,0,.43.4.4,0,0,0,.37-.54c.24-.12.42-.33.64-.43a4.61,4.61,0,0,1,1.86,0,1.65,1.65,0,0,0,1.22-.44.69.69,0,0,0,.08-.13c.11.07.23.14.35.23s.07,0,.12,0c.24.14.67.07.85.27.11.44.88.44,1.07.91.13,0,.22-.09.24,0,.12,0,.16-.19.31-.2,0-.52.73-.36,1.25-.27.13-.12.18-.27.3-.37a1,1,0,0,1,.31-.24c.4-.13,1,.13,1.53.1.25,0,.83-.16,1.19-.2a2.79,2.79,0,0,0,.38,0,5,5,0,0,1,.38.35c-.23.12-.52.17-.64.3s-.07.61-.28.89-.36,0-.62.22c.67.92-.23,1.34-.55,1.94,0,.28.32.25.44.45s-.09.45,0,.72a.81.81,0,0,1,.46.83,2.84,2.84,0,0,1-.49-.36,2.66,2.66,0,0,0-1.83.71c-.1.16.15.18.18.3s-.11.1-.15.17a1.47,1.47,0,0,0,1.34,1.35,3.39,3.39,0,0,0,.46.1c.44,0,1.11-.31,1.19-.77a1.38,1.38,0,0,0,0-.27c0-.1.07-.23.06-.3a.68.68,0,0,0,0-.09,9.33,9.33,0,0,0,1.25.88c.35-.18.64-.38.69-.66.7.77.87-.42,1.64-.36A1.62,1.62,0,0,0,106,50a2.08,2.08,0,0,0,.89-.92.29.29,0,0,0,.22-.06s.07.13.09,0a2.39,2.39,0,0,0,2.57.62.88.88,0,0,0,.07.2.6.6,0,0,1-.15.42c.18.76.87.82.79,1.44.14.18.36,0,.49.26s0,.31-.07.44c.16.18.47-.24.55.23.19-.06.11-.21.3-.27s.3.26.47.36a4.26,4.26,0,0,0,3-1.93c-.07-.35-.26-.74.19-.92-.05-.16-.17-.07-.21-.27.33-1-1-2.24-1.66-2.6-.12-.21.07-.48-.13-.56s-.12.27-.42.33a3.42,3.42,0,0,0-.75-.34c-.17.08-.27.19-.27.33a1.8,1.8,0,0,1-.38.06.86.86,0,0,1,0-.19c0-.24.33-.53.34-.78s-.21-.36-.18-.71.59-.76.34-1.28a1.45,1.45,0,0,1,.57-1,2.2,2.2,0,0,1,.43.53,3.07,3.07,0,0,0,1,2.13,2.23,2.23,0,0,0,.84-1.23c-.11-.23-.33,0-.54.09-.22-.81.85-.48,1.15-.46.46-.32.39-.81.64-1.19a1.91,1.91,0,0,1,.48-.17.5.5,0,0,0-.06.23.62.62,0,0,0,.2-.27l.19,0a1.38,1.38,0,0,1,0-.2l.07-.06c.49-.11.47.69.79.88,0-.21,0-.35,0-.6.1.11.31,0,.41,0,.09.22.21.45.32.68l.11.06,0,.08,0-.06c.51.17.84-.52,1-1h0a.16.16,0,0,0,.14,0v0a4,4,0,0,0,1.15-.39,2.27,2.27,0,0,0,.29.6.71.71,0,0,0,.49.1c.13.33-.27.5-.43.74a.72.72,0,0,0,.89.18.64.64,0,0,0-.13-.4,1.49,1.49,0,0,1,.76-.22l.4.8c.18.06.15-.16.31-.11s0,.44.31.61c.7-.1,1.17.09,1.94-.62a1.18,1.18,0,0,0,.85.53c.3-.2-.05-.6.08-.85a1.19,1.19,0,0,1,1.22,0c.11-.14-.2-.19-.22-.43,0-.49.89-.95,1.15-.46.15-.07.08-.22,0-.35.26-.06,0,.4.15.31.2-.31-.3-.53-.23-.74s.16-.16.08-.29a7,7,0,0,0,1.9.45c.13-.13.13-.31.21-.45.85.08,1.2-1,1.16-1.75a.67.67,0,0,1,.63.1c.15.19,0,.29.16.46s.5-.12.69.06c.1.36-.39.53-.11.95.45.25.84-.28.88-.7.6-.2,1.15.14,1.35.95.57,0,.28-.81.67-1.13a2.1,2.1,0,0,1,1.33-.25c.32.59.4,1.09,0,1.45,0,.43.38.83.69.79.13-.13.13-.31.21-.45-1.29-1.5.43-4,1.41-1.83,0,.25-.23.41-.35.61a.77.77,0,0,0,.9.34c.07-.87-.85-1.22-1-1.93.26-.88,1.35-.8,1.66.27.27-.08.61.34.82-.1-.53-.52-2-1.37-2.69-1-.41.22-.51,1.08-1.27,1.1-.13-.23,0-.39-.08-.59.92-.32,1.16-1.53,2-1.54a.49.49,0,0,0-.1-.34c.65-.63,1-.07,1.5-.19.53.43,1.19.36,1.61,1.19-.09.27-.35,0-.59.28.37.54,1.17.29,1.52.28C144,37.91,143.49,37.93,143.25,37.84ZM127.07,20.32c.12.15-.15.43-.27.33A2.56,2.56,0,0,0,127.07,20.32Zm-.36.46c-.12.09,0,.5-.24.39C126.49,21.05,126.53,20.68,126.71,20.78Zm-26,29.31c.07,0,.12-.05.21,0a1.71,1.71,0,0,1,0,.44C100.68,50.54,100.65,50.26,100.71,50.09Zm.19.74c-.05-.06,0-.24.09-.2S101,50.83,100.9,50.83Zm3.57-11.29c-.1,0-.18,0-.18-.13s.11-.06.21,0S104.44,39.45,104.47,39.54Zm0-1.79c-.11-.3.35-.39.34,0A.24.24,0,0,1,104.44,37.76Zm6.73-2.84-.07,0a.82.82,0,0,1-.28-.41,1.13,1.13,0,0,1,.15-.21A.63.63,0,0,1,111.16,34.92Zm.41,11.26a.54.54,0,0,0-.12-.44s0-.09.09-.07C111.56,45.87,111.82,46.1,111.58,46.18ZM114,44.42c-.34-.07-.34-.61-.38-.89.37-.21.61.08.89.18C114.49,44,114.14,44.16,114,44.42Zm6.36-6.88a.17.17,0,0,1,.12.1Zm.17-.72a.47.47,0,0,1-.08-.18.12.12,0,0,0,0-.17c.09,0,.14,0,.18,0A.36.36,0,0,1,120.55,36.82Zm.88-15.95a.43.43,0,0,1-.05.13l-.16.15a.77.77,0,0,1-.25.08c.11-.11.29-.19.19-.37.11,0,.22-.11.29,0Zm.73,20.35c.21-.21-.28,0-.09-.18.11,0,.29-.14.37,0C122.27,41.05,122.31,41.37,122.17,41.22Zm4.68-15.38a.49.49,0,0,1-.1-.34c.2,0,.22-.22.37-.14C127,25.5,127.11,25.74,126.84,25.84ZM129,35.63A1.12,1.12,0,0,1,129,35c.1.22.27.18.38.33C129.31,35.44,129.14,35.61,129,35.63Z"></path>
      <path class="cls-2" d="M142.61,37.59c-.06-.17-.18-.15-.31,0C142.38,37.71,142.57,37.76,142.61,37.59Z"></path>
      <path class="cls-2" d="M131.8,41.85c-.22.09-.08.29,0,.47C132.17,42.28,132,41.78,131.8,41.85Z"></path>
      <path class="cls-2" d="M132.2,42.09c-.29.37-.29.89-.64,1.19s-.51.22-.67.41a1,1,0,0,0,.14,1.44,1.17,1.17,0,0,0,1.14-.05c.36.09.82.47,1.19-.09.12-.18-.17-.5-.14-.72.73.22,1.48-.53,2-1.19a8.46,8.46,0,0,1-.56-1.26A1.68,1.68,0,0,0,132.2,42.09Z"></path>
      <path class="cls-2" d="M130.79,42.31c.33-.14,0-.52-.19-.37A.35.35,0,0,0,130.79,42.31Z"></path>
      <path class="cls-2" d="M130.05,36.33c.19-.1.08-.49-.15-.31A.27.27,0,0,0,130.05,36.33Z"></path>
      <path class="cls-2" d="M127.79,25.26a.36.36,0,0,0,.36-.3c-.14-.07-.26-.2-.46,0A.49.49,0,0,0,127.79,25.26Z"></path>
      <path class="cls-2" d="M100.34,57.5c.13,0,.51-.14.33-.36C100.52,57.1,100.22,57.3,100.34,57.5Z"></path>
      <path class="cls-2" d="M131.06,32.67c-.15.15-.23.06-.37.14.17.13.38.09.55.23C131.28,32.85,131.16,32.86,131.06,32.67Z"></path>
      <path class="cls-2" d="M129.2,33.32c.36-.23.57-.08.92.08-.1-.35-.68-.38-1-.52C129.3,33.07,129.08,33.14,129.2,33.32Z"></path>
      <path class="cls-2" d="M130.3,35.38c.16-.07.14-.2,0-.35-.13,0-.13.13-.19.2A.32.32,0,0,1,130.3,35.38Z"></path>
      <path class="cls-2" d="M120.29,63.65a.34.34,0,1,0,.63.25C120.79,63.52,120.6,63.38,120.29,63.65Z"></path>
      <path class="cls-2" d="M118.92,55.09c-.27.14-.39-.32-.69-.06a1.84,1.84,0,0,0-.1.38c.14,0,.22.33.43.14-.3,2.27,2.51,3.58,3.66,1.79a.92.92,0,0,1,0-1C121.7,54.55,120.11,53.84,118.92,55.09Z"></path>
      <path class="cls-2" d="M131.38,63.71l.17-.1c-.29-.92-.06-1.95-.68-2.8A13.09,13.09,0,0,0,131.38,63.71Z"></path>
      <path class="cls-2" d="M122.53,64.93c-.16-.08-.26.29-.12.48C122.64,65.31,122.47,65.08,122.53,64.93Z"></path>
      <path class="cls-2" d="M118.31,66.22c0,1.33,1.7,2.17,2.35,1.06A1.3,1.3,0,1,0,118.31,66.22Z"></path>
      <path class="cls-2" d="M122.41,60c-.06.08-.09.18-.16.26.15.41.52.33.6,0C122.76,60,122.56,60.09,122.41,60Z"></path>
      <path class="cls-2" d="M115.53,48.16c0,.17.14.23.29.14C115.76,48.13,115.67,48.05,115.53,48.16Z"></path>
      <path class="cls-2" d="M115.66,44a3.81,3.81,0,0,0,.83-.93C116.13,43.2,115.87,43.7,115.66,44Z"></path>
      <path class="cls-2" d="M127.84,43.54c.06-.1,0-.25,0-.37-.06,0-.11,0-.14,0C127.53,43.33,127.8,43.43,127.84,43.54Z"></path>
      <path class="cls-2" d="M122.94,61.23c.1.17.22.25.4.08C123.23,61,123.06,61.06,122.94,61.23Z"></path>
      <path class="cls-2" d="M129.79,49.18c-.45-.12-1,.3-1.53.29-.89,1.08-.56,2.82.16,4.24l.11-.07c.17-.59-.56-1.44-.33-2.12a1.44,1.44,0,0,0,2.09.41,1.23,1.23,0,0,1,.54-.81C131.12,50.33,130.36,49.55,129.79,49.18Z"></path>
      <path class="cls-2" d="M129.25,61.64l.17-.1-.12-.25C129.14,61.36,129.16,61.49,129.25,61.64Z"></path>
      <path class="cls-2" d="M124.78,56.33a3.27,3.27,0,0,0-1.07,1.94c.17.76.71,1,1.3,1.29a4,4,0,0,0,1.62-.83c0-.83-.29-1-.86-1.72C125.4,56.51,125.31,56.06,124.78,56.33Z"></path>
      <path class="cls-2" d="M127,52c-.68.23.08,1.79.55,1C127.52,52.54,127.48,52,127,52Z"></path>
      <path class="cls-2" d="M132.34,18.8c-.19-.22-.72.27-.46.52C132.09,19.16,132.47,19.06,132.34,18.8Z"></path>
      <path class="cls-2" d="M132.71,24.19c-.36.19-.19.56-.14.89-.23.72.17,1.64,0,2.39.25.35.11.69.37.9a3.86,3.86,0,0,1,.3-2.75C132.54,25.54,133.15,24.51,132.71,24.19Z"></path>
      <path class="cls-2" d="M134.2,23.53c0,.23.08.26.24.33a.37.37,0,0,1,.19-.2l-.12-.25A.39.39,0,0,0,134.2,23.53Z"></path>
      <path class="cls-2" d="M134.53,12.56c-.16.17-.39.32-.21.61C134.51,13,134.75,12.68,134.53,12.56Z"></path>
      <path class="cls-2" d="M97.13,50.06a1.13,1.13,0,0,0,.78-.63C97.67,49.28,97,49.76,97.13,50.06Z"></path>
      <path class="cls-2" d="M137.68,23.65c-.17.14-.28.29-.09.54C137.75,24.05,137.86,23.9,137.68,23.65Z"></path>
      <path class="cls-2" d="M137.33,25.15c.06.07.36-.23.15-.42C137.21,24.8,137.4,25,137.33,25.15Z"></path>
      <path class="cls-2" d="M131.51,23.4a.48.48,0,0,0-.1-.34c-.14.06-.29,0-.34.2S131.32,23.53,131.51,23.4Z"></path>
      <path class="cls-2" d="M132.17,23.76a.24.24,0,0,0-.43.21A.29.29,0,0,0,132.17,23.76Z"></path>
      <path class="cls-2" d="M131.38,22.11c-.25-.06.11.52.14.72C131.8,22.7,131.23,22.29,131.38,22.11Z"></path>
      <path class="cls-2" d="M134,24.45c-.36.3,0,.83-.56,1.06A.83.83,0,0,0,134,24.45Z"></path>
      <path class="cls-2" d="M133.66,24.13c-.07-.33-.49-.14-.4.15A.23.23,0,0,0,133.66,24.13Z"></path>
      <path class="cls-2" d="M133.51,18.81c-.09-.32-.27-.28-.49-.1.07.16.14.3.24.33S133.36,18.86,133.51,18.81Z"></path>
      <path class="cls-2" d="M133,19.91c-.18,0-.19.18-.18.33A.36.36,0,0,0,133,19.91Z"></path>
      <path class="cls-2" d="M135.15,21.66a1.89,1.89,0,0,0-.33,1.81C135.37,23.2,135.23,22.29,135.15,21.66Z"></path>
      <path class="cls-2" d="M141.38,28.3a3.81,3.81,0,0,0-1.06-1.68,5.2,5.2,0,0,1,.9,2.1c.5-.6,1.16-.86,1.74-1.46C142.48,27,141.69,28,141.38,28.3Z"></path>
      <path class="cls-2" d="M141.06,9.62c-.13-.28-.34-.25-.57-.13C140.42,9.91,141.16,10.1,141.06,9.62Z"></path>
      <path class="cls-2" d="M141.17,22.65a5.74,5.74,0,0,0,1.09-2A5.34,5.34,0,0,0,141.17,22.65Z"></path>
      <path class="cls-2" d="M141.92,20.5a.5.5,0,0,0-.35.61C141.85,21,142,20.78,141.92,20.5Z"></path>
      <path class="cls-2" d="M143.11,15.6a.49.49,0,0,0-.45.27l.12.25C143,16.16,143.32,15.87,143.11,15.6Z"></path>
      <path class="cls-2" d="M142.32,22a5.25,5.25,0,0,0,.85-1.8A3.61,3.61,0,0,0,142.32,22Z"></path>
      <path class="cls-2" d="M140.06,24.93c-.37.06-.37.9-.25,1.11C140,25.69,140.28,25.4,140.06,24.93Z"></path>
      <path class="cls-2" d="M140.93,11.55c-.12-.36-.33-.43-.61-.19C140.34,11.67,140.64,11.76,140.93,11.55Z"></path>
      <path class="cls-2" d="M139.38,25.75a1.44,1.44,0,0,0,.06-1.48c-.27.62-.34,1.31-.64,1.92C139.15,26.05,139,25.59,139.38,25.75Z"></path>
      <path class="cls-2" d="M138.17,14.6c.63.13,1.05-.31.91-.8C138.74,12.62,137.21,13.78,138.17,14.6Z"></path>
      <path class="cls-2" d="M138.35,19.63a3.15,3.15,0,0,0,.51-2.32A3.23,3.23,0,0,0,138.35,19.63Z"></path>
      <path class="cls-2" d="M137.87,26.51c.08.15.25,0,.4-.08C138.21,26.17,138,26.47,137.87,26.51Z"></path>
      <path class="cls-2" d="M141.35,24.31a.57.57,0,0,0-1.07.33A.56.56,0,1,0,141.35,24.31Z"></path>
      <path class="cls-2" d="M134.56,17.12c-.16-.29-.13-.53-.35-.83s.6-.46.37-.87c-1,.18-2.54.55-2.41,1.71A1.2,1.2,0,0,0,134.56,17.12Z"></path>
      <path class="cls-2" d="M104,17.15c0-.37-.35-.7-.65-.57C103.22,16.94,103.47,17.64,104,17.15Z"></path>
      <path class="cls-2" d="M100.9,9.45a1.33,1.33,0,0,0-1.14-.83C99.89,9.07,100.55,9.86,100.9,9.45Z"></path>
      <path class="cls-2" d="M100.15,18.42A2.94,2.94,0,0,0,101.69,17c.1-.31-.07-.71.16-1a.84.84,0,0,1-.23-.9c-.27-.26-.55-.3-.54-.79-.52,0-.95-.44-1.5-.37a12.37,12.37,0,0,0-1.39.85c-.19.42-.22.9-.44,1.31A2.31,2.31,0,0,0,100.15,18.42Z"></path>
      <path class="cls-2" d="M94.34,22.37c-.1-.23,0-.28-.21-.43-.16,0-.45.11-.5.31l.18.37A.62.62,0,0,0,94.34,22.37Z"></path>
      <path class="cls-2" d="M104.44,14.2a1.09,1.09,0,0,0,0-.53C103.56,13,103.43,14.93,104.44,14.2Z"></path>
      <path class="cls-2" d="M105,6.88c.12-.84-1-1-1-.17C104.13,7.38,104.68,7.32,105,6.88Z"></path>
      <path class="cls-2" d="M104.41,16.63c-.59.29-.3,1.34.41,1.11C105.71,17.46,104.92,16.38,104.41,16.63Z"></path>
      <path class="cls-2" d="M85.24,22.21c.09-.24-.3-.16-.41-.23C84.75,22.22,85.16,22,85.24,22.21Z"></path>
      <path class="cls-2" d="M90.46,20.72a3.06,3.06,0,0,0-.8-2.32c-.54.18-1-.09-1.47.26-.63.47-.32,1.15-.18,2A1.46,1.46,0,0,0,90.46,20.72Z"></path>
      <path class="cls-2" d="M74.45,37.87c.23.37.45.05.71,0C75,37.59,74.72,37.75,74.45,37.87Z"></path>
      <path class="cls-2" d="M91,23.78c-.6.77,1.14,1.22.92.24C91.83,23.72,91.54,23.37,91,23.78Z"></path>
      <path class="cls-2" d="M93.18,4.2c-.13,0-.36.1-.22.29S93.33,4.39,93.18,4.2Z"></path>
      <path class="cls-2" d="M91.93,23.52c.37.1.77.23,1-.14.09-.13,0-.49,0-.82s.39-.6.19-1.08a1.26,1.26,0,0,0-2.1-.57c-.12.43-.35.69-.24,1.11C91,22.66,91.68,22.86,91.93,23.52Z"></path>
      <path class="cls-2" d="M129.84,25.14a.51.51,0,0,0-.85,0A.47.47,0,0,0,129.84,25.14Z"></path>
      <path class="cls-2" d="M128.21,16c-.14-.07-.29.09-.24.25A.19.19,0,0,0,128.21,16Z"></path>
      <path class="cls-2" d="M120.6,12.78l.17-.1a2.42,2.42,0,0,0-.09-1.79,8.23,8.23,0,0,0-.25,1.68C120.46,12.71,120.54,12.71,120.6,12.78Z"></path>
      <path class="cls-2" d="M127.92,21.34c-.21,0-.5.14-.42.44s.21.23.38.17l.08.16a.43.43,0,0,0,.24-.38C128.4,21.52,128.43,21.26,127.92,21.34Z"></path>
      <path class="cls-2" d="M125.9,15.09c-.35.34-.82.64-.67,1.13A1.14,1.14,0,0,0,125.9,15.09Z"></path>
      <path class="cls-2" d="M130.86,24.27c.07.29.16.28.31.62C131.33,24.74,131.13,24.13,130.86,24.27Z"></path>
      <path class="cls-2" d="M130.57,11a.28.28,0,0,0-.1.38C130.66,11.34,130.69,11.22,130.57,11Z"></path>
      <path class="cls-2" d="M108.69,11.37c.07.26.26.09.35.27s-.19.32-.27.48c.54.06.7.9.5,1.3.13.08.34-.1.46,0a.39.39,0,0,1,0,.57,2.32,2.32,0,0,0,1.19.48c.18.12.06.52.36.58.22-.12.22-.31.35-.46s.38.21.58.29.21-.15.3-.27a2.31,2.31,0,0,1,.52.17c.82-.43,1.13-1.24,1.85-1.53.2-.09.29.2.44.29a1,1,0,0,0,.38-.4.52.52,0,0,1,.58.29c.29-.1.27-.3.35-.46,1.15.15,1.41-1.49,2.24-1.93.16.11.31.24.52.17.71-.52-.2-1-.36-1.31,0-.18.4-.22.38-.4s-.22-.11-.29-.3c-.11-.4.32-.62.39-1-.35-.21-.75-.63-.29-1-.3-.27-.22-.58-.32-.93.37-.31,1.19-.48,1-1-.55.17-.92.84-1.35,1.22-.29-.3.24-.34,0-.63a1.19,1.19,0,0,1-1.12-1.08c-.54,0-.88-.69-1.47-.47l-.19-.37a7.11,7.11,0,0,1-1.82.15c.16-.42.89-.77.66-1.45.14-.18.16-.07.25-.23a14.63,14.63,0,0,0-.69-1.67c-.32.29-.48-.07-.64-.41-.22.19-.41.25-.49-.1-.3.32-.62.41-.88.13-.23-.07-.11.27-.24.39-.55-.14-.4.51-.88.7a1.28,1.28,0,0,0,.08.59c-.07.23-.24.23-.33.36a1.05,1.05,0,0,1,.32.93c.36-.13.32.41.39.64.24,0,.48-.06.61.35.23,0,.51-.28.61.19.34-.31.83-.54,1.16-.3-.58.14-1.25.61-1.72.33-.5.25-1,.54-1.46.73a1.37,1.37,0,0,1-.62,1.1c.11.12.3.3.25.49-.27.08-.26.13-.5.31-.19.88.58.92,1,1.4-.23.24-.34,0-.49-.1-.23.12-.26.3-.53.4a.83.83,0,0,1,0,.66.92.92,0,0,0-.83.67.89.89,0,0,1,.34.83C109,11.34,108.94,11.36,108.69,11.37Zm3-6.27.11-.07s.07,0,.09,0a1.39,1.39,0,0,0-.13.32c.08-.06.13.16,0,.06s-.11,0-.15-.15.16-.09.14-.16S111.76,5.15,111.74,5.09Zm-1.81,6.56c0-.08-.06-.16,0-.19.18.17-.15.43-.27.33C109.75,11.67,109.81,11.64,109.93,11.66Z"></path>
      <path class="cls-2" d="M107.46,4.25l.17-.1a2.53,2.53,0,0,0-.91-1.53C106.56,3,107.1,3.91,107.46,4.25Z"></path>
      <path class="cls-2" d="M108,16.18c.07-.21-.25-.47-.41-.39C107.59,16,107.92,16,108,16.18Z"></path>
      <path class="cls-2" d="M105.28,0l.21.43C105.71.44,105.42-.15,105.28,0Z"></path>
      <path class="cls-2" d="M120.5,16.06a.63.63,0,0,0-.06.76C120.56,16.61,120.69,16.2,120.5,16.06Z"></path>
      <path class="cls-2" d="M114,15.44c.22-.2-.22-.61-.34-.68C113.45,14.95,113.92,15.24,114,15.44Z"></path>
      <path d="M13.27,23.57V41.86H9.51V29.51L8,41.86H5.34L3.76,29.79V41.86H0V23.57H5.56q.25,1.65.51,3.89l.61,4.65,1-8.54Z"></path>
      <path d="M24.82,34.28q0,2.76-.12,3.9a4.65,4.65,0,0,1-.74,2.1,4.06,4.06,0,0,1-1.67,1.46,5.57,5.57,0,0,1-2.45.51,5.71,5.71,0,0,1-2.39-.48,4,4,0,0,1-1.7-1.44A4.59,4.59,0,0,1,15,38.23q-.12-1.13-.12-4V31.15q0-2.76.12-3.9a4.65,4.65,0,0,1,.73-2.1,4.06,4.06,0,0,1,1.67-1.46,5.58,5.58,0,0,1,2.45-.51,5.7,5.7,0,0,1,2.38.48,4,4,0,0,1,1.7,1.44,4.57,4.57,0,0,1,.77,2.09q.12,1.13.12,4Zm-4.3-6a6.31,6.31,0,0,0-.13-1.63.51.51,0,0,0-.53-.36.57.57,0,0,0-.52.29,4.49,4.49,0,0,0-.18,1.7v8.54a9.28,9.28,0,0,0,.12,2,.51.51,0,0,0,.55.37.53.53,0,0,0,.56-.43,9.94,9.94,0,0,0,.12-2Z"></path>
      <path d="M39.7,23.57V41.86H35.94V29.51l-1.5,12.35H31.77L30.19,29.79V41.86H26.43V23.57H32q.25,1.65.51,3.89l.61,4.65,1-8.54Z"></path>
      <path d="M41.43,23.57H48.6v3.66H45.73V30.7h2.69v3.48H45.73v4h3.16v3.66H41.43Z"></path>
      <path d="M59.72,23.57V41.86H56l-2.24-8.31v8.31h-3.6V23.57h3.6l2.41,8.23V23.57Z"></path>
      <path d="M70.11,23.57v3.66H67.56V41.86h-4.3V27.23H60.71V23.57Z"></path>
      <path d="M80.87,23.57V35.79a23.33,23.33,0,0,1-.12,2.92A4.17,4.17,0,0,1,80,40.44a3.83,3.83,0,0,1-1.59,1.34,5.48,5.48,0,0,1-2.32.46,6,6,0,0,1-2.62-.54,4,4,0,0,1-1.7-1.41,4.15,4.15,0,0,1-.66-1.84q-.1-1-.1-4.06V23.57h4.3V37.28a6,6,0,0,0,.12,1.53.46.46,0,0,0,.47.33.5.5,0,0,0,.53-.37A7.51,7.51,0,0,0,76.57,37V23.57Z"></path>
      <path d="M95.81,23.57V41.86H92V29.51l-1.5,12.35H87.88L86.3,29.79V41.86H82.54V23.57H88.1q.25,1.65.51,3.89l.61,4.65,1-8.54Z"></path>
      <path class="cls-3" d="M101.83,23.57V41.86h-4.3V23.57Z"></path>
      <path class="cls-3" d="M113.16,23.57V41.86h-3.77l-2.24-8.31v8.31h-3.6V23.57h3.6l2.41,8.23V23.57Z"></path>
      <path class="cls-3" d="M125.14,23.57l-2.47,8.26,2.7,10h-4.45L119.19,34v7.84h-4.3V23.57h4.3v7.1l1.92-7.1Z"></path>
      <path d="M1.63,49.41a3.69,3.69,0,0,1-.91-.1A4.66,4.66,0,0,1,0,49.06V48H.1a2.52,2.52,0,0,0,.75.44,2.23,2.23,0,0,0,.79.15l.26,0a.9.9,0,0,0,.25-.07.57.57,0,0,0,.2-.14.35.35,0,0,0,.08-.24.34.34,0,0,0-.13-.27A.83.83,0,0,0,2,47.69l-.49-.11A3.87,3.87,0,0,1,1,47.44a1.51,1.51,0,0,1-.75-.49A1.28,1.28,0,0,1,0,46.16a1.21,1.21,0,0,1,.53-1,2.21,2.21,0,0,1,1.34-.39,4,4,0,0,1,.8.08,3.52,3.52,0,0,1,.71.22v1H3.3a2.28,2.28,0,0,0-.61-.36A1.93,1.93,0,0,0,2,45.57l-.27,0a1.09,1.09,0,0,0-.25.08.49.49,0,0,0-.18.14.32.32,0,0,0-.08.21.34.34,0,0,0,.12.27,1.23,1.23,0,0,0,.47.18l.44.1.45.13a1.51,1.51,0,0,1,.7.45,1.16,1.16,0,0,1,.23.75A1.3,1.3,0,0,1,3.05,49,2.26,2.26,0,0,1,1.63,49.41Z"></path>
      <path d="M6.41,49.41A2.14,2.14,0,0,1,4.8,48.8a2.36,2.36,0,0,1-.6-1.72,2.39,2.39,0,0,1,.6-1.7,2.1,2.1,0,0,1,1.61-.63,3.6,3.6,0,0,1,.48,0l.41.09.33.12.29.14v1.07H7.82L7.61,46l-.28-.2A1.88,1.88,0,0,0,7,45.66a1.14,1.14,0,0,0-.39-.07,1.24,1.24,0,0,0-.45.08,1.06,1.06,0,0,0-.39.27,1.25,1.25,0,0,0-.28.46,2,2,0,0,0-.11.69,2,2,0,0,0,.11.7,1.26,1.26,0,0,0,.29.46,1.08,1.08,0,0,0,.39.24,1.29,1.29,0,0,0,.43.08A1.21,1.21,0,0,0,7,48.5a1.74,1.74,0,0,0,.34-.16l.27-.19.2-.17h.1V49l-.29.13-.33.13-.39.1A3.05,3.05,0,0,1,6.41,49.41Z"></path>
      <path d="M13.06,49.33H11.68l-1.25-1.65H10v1.65H8.9v-4.5h1.81a3.92,3.92,0,0,1,.65,0,1.4,1.4,0,0,1,.51.19,1.09,1.09,0,0,1,.53,1,1.4,1.4,0,0,1-.23.84,1.65,1.65,0,0,1-.62.51Zm-1.82-3.12a.62.62,0,0,0-.06-.29.43.43,0,0,0-.21-.19.79.79,0,0,0-.24-.06H10v1.21h.32a2.35,2.35,0,0,0,.4,0,.61.61,0,0,0,.28-.12.52.52,0,0,0,.16-.2A.76.76,0,0,0,11.24,46.21Z"></path>
      <path d="M13.7,49.33v-4.5h3v.86H14.82v.79h1.77v.86H14.82v1.14h1.92v.86Z"></path>
      <path d="M17.81,49.33v-4.5h3v.86H18.94v.79H20.7v.86H18.94v1.14h1.92v.86Z"></path>
      <path d="M25.78,49.33H24.69L23,46.19v3.13h-1v-4.5h1.39l1.43,2.58V44.83h1Z"></path>
      <path d="M30.46,46.25a1.79,1.79,0,0,1-.1.6,1.27,1.27,0,0,1-.29.47,1.86,1.86,0,0,1-.25.22,1.47,1.47,0,0,1-.3.17,2,2,0,0,1-.36.11,2.15,2.15,0,0,1-.44,0h-.59v1.47H27v-4.5h1.74a2.77,2.77,0,0,1,.67.07,1.63,1.63,0,0,1,.51.22,1.13,1.13,0,0,1,.39.45A1.52,1.52,0,0,1,30.46,46.25Zm-1.16,0a.58.58,0,0,0-.09-.33.48.48,0,0,0-.22-.19,1,1,0,0,0-.31-.08h-.56V47h.38l.25,0,.19-.06a.51.51,0,0,0,.15-.1.61.61,0,0,0,.16-.23A1.05,1.05,0,0,0,29.3,46.28Z"></path>
      <path d="M35.53,49.33H34.15L32.9,47.68h-.4v1.65H31.37v-4.5h1.81a3.91,3.91,0,0,1,.65,0,1.39,1.39,0,0,1,.51.19,1.17,1.17,0,0,1,.38.39,1.14,1.14,0,0,1,.14.6,1.4,1.4,0,0,1-.23.84,1.62,1.62,0,0,1-.62.51Zm-1.82-3.12a.62.62,0,0,0-.06-.29.43.43,0,0,0-.21-.19.78.78,0,0,0-.24-.06h-.7v1.21h.32a2.35,2.35,0,0,0,.4,0,.6.6,0,0,0,.28-.12.54.54,0,0,0,.16-.2A.76.76,0,0,0,33.71,46.21Z"></path>
      <path d="M38.41,49.33H36v-.79h.65V45.62H36v-.79h2.42v.79h-.65v2.92h.65Z"></path>
      <path d="M43.32,49.33H42.23L40.5,46.19v3.13h-1v-4.5h1.39l1.43,2.58V44.83h1Z"></path>
      <path d="M45.4,49.33V45.69H44.07v-.86h3.78v.86H46.53v3.64Z"></path>
      <path d="M50.87,49.33H48.45v-.79h.65V45.62h-.65v-.79h2.42v.79h-.64v2.92h.64Z"></path>
      <path d="M55.78,49.33H54.7L53,46.19v3.13h-1v-4.5h1.38l1.44,2.58V44.83h1Z"></path>
      <path d="M60.76,49.07a5.65,5.65,0,0,1-.77.24,3.94,3.94,0,0,1-.93.11,2.34,2.34,0,1,1,0-4.67,3.24,3.24,0,0,1,.92.11,4.8,4.8,0,0,1,.73.29V46.2h-.1L60.4,46l-.3-.2a2,2,0,0,0-.39-.17,1.58,1.58,0,0,0-.47-.07,1.47,1.47,0,0,0-.53.09,1.18,1.18,0,0,0-.43.28,1.3,1.3,0,0,0-.28.46,1.86,1.86,0,0,0-.1.65,1.53,1.53,0,0,0,.4,1.16,1.51,1.51,0,0,0,1.08.37h.28V47.7h-.87v-.84h2Z"></path>
      <path d="M63.55,49.33l1.52-4.5H66.3l1.52,4.5H66.66l-.28-.92H65l-.28.92Zm2.58-1.73-.46-1.48-.46,1.48Z"></path>
      <path d="M72.43,49.33H71.34l-1.73-3.13v3.13h-1v-4.5H70l1.44,2.58V44.83h1Z"></path>
      <path d="M77.67,47.08a2.28,2.28,0,0,1-.28,1.12,2.06,2.06,0,0,1-.69.76,2,2,0,0,1-.76.29,5.54,5.54,0,0,1-.88.07H73.65v-4.5H75a6.22,6.22,0,0,1,.89.06,2,2,0,0,1,.78.29,2,2,0,0,1,.7.77A2.37,2.37,0,0,1,77.67,47.08Zm-1.16,0a1.73,1.73,0,0,0-.15-.76,1.11,1.11,0,0,0-.47-.49,1.1,1.1,0,0,0-.48-.14h-.62v2.81h.66a1,1,0,0,0,.5-.16,1.12,1.12,0,0,0,.42-.48A1.74,1.74,0,0,0,76.51,47.08Z"></path>
      <path d="M80.76,49.33v-4.5h3v.86H81.88v.79h1.77v.86H81.88v1.14H83.8v.86Z"></path>
      <path d="M89.46,49.33H88.34v-3l-.82,1.92h-.77l-.82-1.92v3H84.87v-4.5h1.3l1,2.22,1-2.22h1.3Z"></path>
      <path d="M94.3,48a1.3,1.3,0,0,1-.13.59,1.19,1.19,0,0,1-.34.42,1.56,1.56,0,0,1-.56.28,2.91,2.91,0,0,1-.77.09h-1.8v-4.5h1.59a5.58,5.58,0,0,1,.75,0,1.46,1.46,0,0,1,.48.16.87.87,0,0,1,.36.35,1,1,0,0,1,.12.5,1,1,0,0,1-.17.59,1,1,0,0,1-.45.38v0a1.24,1.24,0,0,1,.67.36A1,1,0,0,1,94.3,48ZM92.85,46.1a.51.51,0,0,0-.05-.22.35.35,0,0,0-.17-.17.73.73,0,0,0-.26-.05h-.53v1h.55a.65.65,0,0,0,.24-.06.36.36,0,0,0,.19-.17A.6.6,0,0,0,92.85,46.1Zm.29,1.83a.56.56,0,0,0-.08-.33.53.53,0,0,0-.25-.18.89.89,0,0,0-.28,0h-.69V48.5h.67a1,1,0,0,0,.34-.08.44.44,0,0,0,.22-.19A.57.57,0,0,0,93.14,47.93Z"></path>
      <path d="M99.41,49.33H98l-1.25-1.65h-.4v1.65H95.26v-4.5h1.81a3.92,3.92,0,0,1,.65,0,1.4,1.4,0,0,1,.51.19,1.17,1.17,0,0,1,.38.39,1.14,1.14,0,0,1,.14.6,1.4,1.4,0,0,1-.23.84,1.63,1.63,0,0,1-.62.51Zm-1.82-3.12a.62.62,0,0,0-.06-.29.43.43,0,0,0-.21-.19.79.79,0,0,0-.24-.06h-.7v1.21h.32a2.36,2.36,0,0,0,.4,0,.61.61,0,0,0,.28-.12.55.55,0,0,0,.16-.2A.76.76,0,0,0,97.59,46.21Z"></path>
      <path d="M104.15,47.08a2.42,2.42,0,0,1-.58,1.71,2.08,2.08,0,0,1-1.6.62,2.06,2.06,0,0,1-1.6-.63,2.82,2.82,0,0,1,0-3.42,2.35,2.35,0,0,1,3.2,0A2.43,2.43,0,0,1,104.15,47.08Zm-1.17,0a2.47,2.47,0,0,0-.08-.68,1.45,1.45,0,0,0-.22-.46.84.84,0,0,0-.33-.26,1,1,0,0,0-.76,0,.9.9,0,0,0-.33.26,1.41,1.41,0,0,0-.22.46,2.47,2.47,0,0,0-.09.69,2.42,2.42,0,0,0,.08.69,1.43,1.43,0,0,0,.22.46.85.85,0,0,0,.33.27.94.94,0,0,0,.38.08.92.92,0,0,0,.39-.09.86.86,0,0,0,.32-.27,1.51,1.51,0,0,0,.22-.46A2.42,2.42,0,0,0,103,47.08Z"></path>
      <path d="M107.36,49.33h-2.42v-.79h.65V45.62h-.65v-.79h2.42v.79h-.65v2.92h.65Z"></path>
      <path d="M112.43,47.08a2.3,2.3,0,0,1-.27,1.12,2.07,2.07,0,0,1-.7.76,1.94,1.94,0,0,1-.76.29,5.56,5.56,0,0,1-.88.07h-1.41v-4.5h1.39a6.17,6.17,0,0,1,.89.06,1.94,1.94,0,0,1,.78.29,2,2,0,0,1,.7.77A2.39,2.39,0,0,1,112.43,47.08Zm-1.16,0a1.73,1.73,0,0,0-.15-.76,1.11,1.11,0,0,0-.47-.49,1.09,1.09,0,0,0-.48-.14h-.62v2.81h.66a1,1,0,0,0,.5-.16,1.11,1.11,0,0,0,.42-.48A1.74,1.74,0,0,0,111.28,47.08Z"></path>
      <path d="M113.41,49.33v-4.5h3v.86h-1.92v.79h1.77v.86h-1.77v1.14h1.92v.86Z"></path>
      <path d="M121.68,49.33H120.3l-1.25-1.65h-.4v1.65h-1.12v-4.5h1.81a3.91,3.91,0,0,1,.65,0,1.39,1.39,0,0,1,.51.19,1.17,1.17,0,0,1,.38.39,1.14,1.14,0,0,1,.14.6,1.4,1.4,0,0,1-.23.84,1.62,1.62,0,0,1-.62.51Zm-1.82-3.12a.62.62,0,0,0-.06-.29.43.43,0,0,0-.21-.19.78.78,0,0,0-.24-.06h-.7v1.21H119a2.35,2.35,0,0,0,.4,0,.61.61,0,0,0,.28-.12.52.52,0,0,0,.16-.2A.73.73,0,0,0,119.86,46.21Z"></path>
      <path d="M126.06,44.83l-1.55,2.62v1.88h-1.13V47.51l-1.58-2.67h1.29l.88,1.61.85-1.61Z"></path>
    </g>
  </g>
</svg>
